<svg width="28" height="23" viewBox="0 0 28 23" fill="none" xmlns="http://www.w3.org/2000/svg">
<path d="M27.9688 8.35114C27.9688 8.36489 27.9688 8.37739 27.9601 8.39114L25.1251 21.3749C25.0378 21.8321 24.7938 22.2445 24.4351 22.5411C24.0764 22.8378 23.6255 23 23.1601 22.9999H4.83882C4.37359 22.9997 3.92297 22.8373 3.56454 22.5407C3.20611 22.2441 2.9623 21.8319 2.87507 21.3749L0.0400681 8.39114C0.0400681 8.37739 0.0338181 8.36489 0.0313181 8.35114C-0.0462728 7.92126 0.0190071 7.47781 0.217183 7.08853C0.415359 6.69925 0.735533 6.38555 1.12878 6.19538C1.52203 6.0052 1.96673 5.949 2.39493 6.03536C2.82313 6.12172 3.21128 6.3459 3.50007 6.67364L7.70882 11.2099L12.1838 1.17364C12.184 1.16947 12.184 1.1653 12.1838 1.16114C12.3438 0.81407 12.5999 0.520118 12.9218 0.314077C13.2437 0.108037 13.6179 -0.00146484 14.0001 -0.00146484C14.3822 -0.00146484 14.7564 0.108037 15.0783 0.314077C15.4002 0.520118 15.6563 0.81407 15.8163 1.16114C15.8161 1.1653 15.8161 1.16947 15.8163 1.17364L20.2913 11.2099L24.5001 6.67364C24.7895 6.34833 25.1771 6.12635 25.6041 6.0414C26.0312 5.95645 26.4742 6.01317 26.8661 6.20294C27.258 6.39272 27.5772 6.70519 27.7753 7.0929C27.9734 7.48062 28.0396 7.92239 27.9638 8.35114H27.9688Z" fill="#4F46E5"/>
</svg>
