<svg width="24" height="24" viewBox="0 0 24 24" fill="none" xmlns="http://www.w3.org/2000/svg">
<path d="M20.7925 9.95657L20.7926 9.95667C20.963 10.126 21.0981 10.3276 21.19 10.5496C21.282 10.7715 21.3289 11.0096 21.3281 11.2498V11.25V20.25C21.3281 20.5359 21.2145 20.8101 21.0124 21.0123C20.8102 21.2145 20.5359 21.3281 20.25 21.3281H3.75001C3.46407 21.3281 3.18985 21.2145 2.98766 21.0123C2.78547 20.8101 2.67188 20.5359 2.67188 20.25L2.67188 11.25L2.67188 11.2498C2.67111 11.0096 2.71805 10.7715 2.80999 10.5496C2.90192 10.3276 3.03701 10.126 3.20743 9.95667L3.20753 9.95657L10.7075 2.45658C10.7075 2.45657 10.7075 2.45657 10.7075 2.45657C11.0504 2.11385 11.5153 1.92133 12 1.92133C12.4848 1.92133 12.9497 2.11385 13.2925 2.45657C13.2925 2.45657 13.2925 2.45657 13.2925 2.45658L20.7925 9.95657ZM19.125 19.1719H19.1719V19.125V11.4047V11.3853L19.1582 11.3715L12.0332 4.24653L12 4.21338L11.9669 4.24653L4.84186 11.3715L4.82813 11.3853V11.4047V19.125V19.1719H4.87501H19.125Z" fill="#475569" stroke="#475569" stroke-width="0.09375"/>
</svg>
