<svg width="24" height="24" viewBox="0 0 24 24" fill="none" xmlns="http://www.w3.org/2000/svg">
<path d="M16.2469 14.6597L16.1806 14.7094L16.2574 14.7406C18.6532 15.7132 20.652 17.4636 21.9321 19.7101C22.064 19.9568 22.0948 20.245 22.0181 20.514C21.9414 20.7831 21.763 21.0119 21.5207 21.1519C21.2783 21.2919 20.991 21.3322 20.7195 21.2642C20.4483 21.1963 20.214 21.0257 20.0662 20.7884C18.3592 17.8393 15.3441 16.0781 12 16.0781C8.65574 16.0781 5.64046 17.8386 3.93353 20.789L3.93351 20.789L3.93278 20.7904C3.86458 20.9178 3.77145 21.0302 3.65894 21.1209C3.54643 21.2116 3.41682 21.2788 3.27783 21.3184C3.13884 21.3581 2.99331 21.3693 2.84987 21.3516C2.70644 21.3339 2.56803 21.2875 2.44289 21.2151C2.31775 21.1428 2.20842 21.0461 2.12141 20.9307C2.03439 20.8153 1.97147 20.6836 1.93638 20.5434C1.90128 20.4032 1.89474 20.2574 1.91713 20.1146C1.93952 19.9718 1.99039 19.835 2.06672 19.7123L2.06675 19.7123L2.06764 19.7107C3.34779 17.464 5.34673 15.7133 7.74267 14.7406L7.81949 14.7094L7.75317 14.6597C6.56471 13.7683 5.68683 12.5257 5.24388 11.1077C4.80093 9.68966 4.81536 8.16823 5.28514 6.75889C5.75492 5.34955 6.65623 4.12375 7.86139 3.25512C9.06655 2.38649 10.5145 1.91907 12 1.91907C13.4856 1.91907 14.9335 2.38649 16.1387 3.25512C17.3439 4.12375 18.2452 5.34955 18.7149 6.75889C19.1847 8.16823 19.1992 9.68966 18.7562 11.1077C18.3133 12.5257 17.4354 13.7683 16.2469 14.6597ZM7.07817 9V9.00006C7.07967 10.3049 7.5987 11.556 8.5214 12.4787C9.44409 13.4013 10.6951 13.9204 12 13.9219H12C12.9735 13.9219 13.9251 13.6332 14.7345 13.0924C15.5439 12.5516 16.1747 11.7829 16.5473 10.8835C16.9198 9.98417 17.0173 8.99454 16.8273 8.03979C16.6374 7.08504 16.1687 6.20805 15.4803 5.51971C14.792 4.83138 13.915 4.36261 12.9603 4.1727C12.0055 3.98279 11.0159 4.08026 10.1165 4.45279C9.21717 4.82531 8.44847 5.45616 7.90765 6.26556C7.36683 7.07496 7.07817 8.02655 7.07817 9Z" fill="#475569" stroke="#475569" stroke-width="0.09375"/>
</svg>
